<mxfile host="app.diagrams.net" modified="2021-01-15T01:36:46.772Z" agent="5.0 (Windows NT 10.0; Win64; x64) AppleWebKit/537.36 (KHTML, like Gecko) Chrome/87.0.4280.141 Safari/537.36" etag="7nsu45zY3gbgiW9wTRKt" version="14.2.2" type="github">
  <diagram id="iBNZiEgctVquR5vJIjze" name="Page-1">
    <mxGraphModel dx="2546" dy="1199" grid="1" gridSize="10" guides="1" tooltips="1" connect="1" arrows="1" fold="1" page="1" pageScale="1" pageWidth="827" pageHeight="1169" math="0" shadow="0">
      <root>
        <mxCell id="0" />
        <mxCell id="1" parent="0" />
        <mxCell id="PgR12nupK2RqGDpM8uWI-26" style="edgeStyle=none;rounded=0;orthogonalLoop=1;jettySize=auto;html=1;" edge="1" parent="1" source="PgR12nupK2RqGDpM8uWI-1" target="PgR12nupK2RqGDpM8uWI-5">
          <mxGeometry relative="1" as="geometry">
            <mxPoint x="880" y="479.9999999999998" as="targetPoint" />
          </mxGeometry>
        </mxCell>
        <mxCell id="PgR12nupK2RqGDpM8uWI-27" style="edgeStyle=none;rounded=0;orthogonalLoop=1;jettySize=auto;html=1;exitX=0.75;exitY=0;exitDx=0;exitDy=0;" edge="1" parent="1" source="PgR12nupK2RqGDpM8uWI-1" target="PgR12nupK2RqGDpM8uWI-4">
          <mxGeometry relative="1" as="geometry" />
        </mxCell>
        <mxCell id="PgR12nupK2RqGDpM8uWI-28" style="edgeStyle=none;rounded=0;orthogonalLoop=1;jettySize=auto;html=1;" edge="1" parent="1" source="PgR12nupK2RqGDpM8uWI-1" target="PgR12nupK2RqGDpM8uWI-3">
          <mxGeometry relative="1" as="geometry" />
        </mxCell>
        <mxCell id="PgR12nupK2RqGDpM8uWI-29" style="edgeStyle=none;rounded=0;orthogonalLoop=1;jettySize=auto;html=1;" edge="1" parent="1" source="PgR12nupK2RqGDpM8uWI-1" target="PgR12nupK2RqGDpM8uWI-2">
          <mxGeometry relative="1" as="geometry" />
        </mxCell>
        <mxCell id="PgR12nupK2RqGDpM8uWI-37" style="edgeStyle=none;rounded=0;orthogonalLoop=1;jettySize=auto;html=1;" edge="1" parent="1" source="PgR12nupK2RqGDpM8uWI-1" target="PgR12nupK2RqGDpM8uWI-6">
          <mxGeometry relative="1" as="geometry" />
        </mxCell>
        <mxCell id="PgR12nupK2RqGDpM8uWI-1" value="block.h" style="rounded=0;whiteSpace=wrap;html=1;" vertex="1" parent="1">
          <mxGeometry x="290" y="670" width="120" height="45" as="geometry" />
        </mxCell>
        <mxCell id="PgR12nupK2RqGDpM8uWI-30" style="edgeStyle=none;rounded=0;orthogonalLoop=1;jettySize=auto;html=1;" edge="1" parent="1" source="PgR12nupK2RqGDpM8uWI-2" target="PgR12nupK2RqGDpM8uWI-5">
          <mxGeometry relative="1" as="geometry" />
        </mxCell>
        <mxCell id="PgR12nupK2RqGDpM8uWI-2" value="blockItemIterator" style="rounded=0;whiteSpace=wrap;html=1;" vertex="1" parent="1">
          <mxGeometry x="440" y="440" width="120" height="40" as="geometry" />
        </mxCell>
        <mxCell id="PgR12nupK2RqGDpM8uWI-32" style="edgeStyle=none;rounded=0;orthogonalLoop=1;jettySize=auto;html=1;entryX=0.5;entryY=1;entryDx=0;entryDy=0;" edge="1" parent="1" source="PgR12nupK2RqGDpM8uWI-3" target="PgR12nupK2RqGDpM8uWI-31">
          <mxGeometry relative="1" as="geometry" />
        </mxCell>
        <mxCell id="PgR12nupK2RqGDpM8uWI-40" style="edgeStyle=none;rounded=0;orthogonalLoop=1;jettySize=auto;html=1;" edge="1" parent="1" source="PgR12nupK2RqGDpM8uWI-4" target="PgR12nupK2RqGDpM8uWI-38">
          <mxGeometry relative="1" as="geometry" />
        </mxCell>
        <mxCell id="PgR12nupK2RqGDpM8uWI-42" style="edgeStyle=none;rounded=0;orthogonalLoop=1;jettySize=auto;html=1;" edge="1" parent="1" source="PgR12nupK2RqGDpM8uWI-4" target="PgR12nupK2RqGDpM8uWI-33">
          <mxGeometry relative="1" as="geometry" />
        </mxCell>
        <mxCell id="PgR12nupK2RqGDpM8uWI-4" value="blockDesc" style="rounded=0;whiteSpace=wrap;html=1;" vertex="1" parent="1">
          <mxGeometry x="360" y="220" width="120" height="40" as="geometry" />
        </mxCell>
        <mxCell id="PgR12nupK2RqGDpM8uWI-5" value="bitmap" style="rounded=0;whiteSpace=wrap;html=1;" vertex="1" parent="1">
          <mxGeometry x="20" y="500" width="120" height="40" as="geometry" />
        </mxCell>
        <mxCell id="PgR12nupK2RqGDpM8uWI-43" style="edgeStyle=none;rounded=0;orthogonalLoop=1;jettySize=auto;html=1;entryX=0.5;entryY=1;entryDx=0;entryDy=0;" edge="1" parent="1" source="PgR12nupK2RqGDpM8uWI-6" target="PgR12nupK2RqGDpM8uWI-31">
          <mxGeometry relative="1" as="geometry" />
        </mxCell>
        <mxCell id="PgR12nupK2RqGDpM8uWI-46" style="edgeStyle=none;rounded=0;orthogonalLoop=1;jettySize=auto;html=1;exitX=0;exitY=0.5;exitDx=0;exitDy=0;" edge="1" parent="1" source="PgR12nupK2RqGDpM8uWI-6" target="PgR12nupK2RqGDpM8uWI-45">
          <mxGeometry relative="1" as="geometry" />
        </mxCell>
        <mxCell id="PgR12nupK2RqGDpM8uWI-6" value="chunk.h" style="rounded=0;whiteSpace=wrap;html=1;" vertex="1" parent="1">
          <mxGeometry y="662.5" width="120" height="45" as="geometry" />
        </mxCell>
        <mxCell id="PgR12nupK2RqGDpM8uWI-39" style="edgeStyle=none;rounded=0;orthogonalLoop=1;jettySize=auto;html=1;" edge="1" parent="1" source="PgR12nupK2RqGDpM8uWI-9" target="PgR12nupK2RqGDpM8uWI-38">
          <mxGeometry relative="1" as="geometry" />
        </mxCell>
        <mxCell id="PgR12nupK2RqGDpM8uWI-9" value="chunkDesc" style="rounded=0;whiteSpace=wrap;html=1;" vertex="1" parent="1">
          <mxGeometry x="220" y="220" width="120" height="40" as="geometry" />
        </mxCell>
        <mxCell id="PgR12nupK2RqGDpM8uWI-10" value="bitmap" style="rounded=0;whiteSpace=wrap;html=1;" vertex="1" parent="1">
          <mxGeometry x="260" y="440" width="120" height="40" as="geometry" />
        </mxCell>
        <mxCell id="PgR12nupK2RqGDpM8uWI-11" value="chunkItemIterator" style="rounded=0;whiteSpace=wrap;html=1;" vertex="1" parent="1">
          <mxGeometry x="-260" y="440" width="120" height="40" as="geometry" />
        </mxCell>
        <mxCell id="PgR12nupK2RqGDpM8uWI-49" style="edgeStyle=none;rounded=0;orthogonalLoop=1;jettySize=auto;html=1;" edge="1" parent="1" source="PgR12nupK2RqGDpM8uWI-12" target="PgR12nupK2RqGDpM8uWI-1">
          <mxGeometry relative="1" as="geometry" />
        </mxCell>
        <mxCell id="PgR12nupK2RqGDpM8uWI-12" value="blockContainer" style="rounded=0;whiteSpace=wrap;html=1;" vertex="1" parent="1">
          <mxGeometry x="60" y="860" width="120" height="40" as="geometry" />
        </mxCell>
        <mxCell id="PgR12nupK2RqGDpM8uWI-13" value="serializable" style="rounded=0;whiteSpace=wrap;html=1;" vertex="1" parent="1">
          <mxGeometry x="-520" y="440" width="120" height="40" as="geometry" />
        </mxCell>
        <mxCell id="PgR12nupK2RqGDpM8uWI-14" value="" style="endArrow=classic;html=1;" edge="1" parent="1" source="PgR12nupK2RqGDpM8uWI-6" target="PgR12nupK2RqGDpM8uWI-1">
          <mxGeometry width="50" height="50" relative="1" as="geometry">
            <mxPoint x="110" y="420" as="sourcePoint" />
            <mxPoint x="160" y="370" as="targetPoint" />
          </mxGeometry>
        </mxCell>
        <mxCell id="PgR12nupK2RqGDpM8uWI-15" value="" style="endArrow=classic;html=1;exitX=1;exitY=0;exitDx=0;exitDy=0;" edge="1" parent="1" source="PgR12nupK2RqGDpM8uWI-6" target="PgR12nupK2RqGDpM8uWI-10">
          <mxGeometry width="50" height="50" relative="1" as="geometry">
            <mxPoint x="-60" y="650" as="sourcePoint" />
            <mxPoint x="-10" y="600" as="targetPoint" />
          </mxGeometry>
        </mxCell>
        <mxCell id="PgR12nupK2RqGDpM8uWI-16" value="" style="endArrow=classic;html=1;entryX=0.5;entryY=1;entryDx=0;entryDy=0;" edge="1" parent="1" source="PgR12nupK2RqGDpM8uWI-6" target="PgR12nupK2RqGDpM8uWI-9">
          <mxGeometry width="50" height="50" relative="1" as="geometry">
            <mxPoint x="190" y="530" as="sourcePoint" />
            <mxPoint x="330" y="490" as="targetPoint" />
          </mxGeometry>
        </mxCell>
        <mxCell id="PgR12nupK2RqGDpM8uWI-17" value="" style="endArrow=classic;html=1;" edge="1" parent="1" source="PgR12nupK2RqGDpM8uWI-6" target="PgR12nupK2RqGDpM8uWI-3">
          <mxGeometry width="50" height="50" relative="1" as="geometry">
            <mxPoint x="200" y="540" as="sourcePoint" />
            <mxPoint x="340" y="500" as="targetPoint" />
          </mxGeometry>
        </mxCell>
        <mxCell id="PgR12nupK2RqGDpM8uWI-19" value="" style="endArrow=classic;html=1;" edge="1" parent="1" source="PgR12nupK2RqGDpM8uWI-6" target="PgR12nupK2RqGDpM8uWI-2">
          <mxGeometry width="50" height="50" relative="1" as="geometry">
            <mxPoint x="210" y="550" as="sourcePoint" />
            <mxPoint x="350" y="510" as="targetPoint" />
          </mxGeometry>
        </mxCell>
        <mxCell id="PgR12nupK2RqGDpM8uWI-20" value="" style="endArrow=classic;html=1;" edge="1" parent="1" source="PgR12nupK2RqGDpM8uWI-6" target="PgR12nupK2RqGDpM8uWI-13">
          <mxGeometry width="50" height="50" relative="1" as="geometry">
            <mxPoint x="220" y="560" as="sourcePoint" />
            <mxPoint x="360" y="520" as="targetPoint" />
          </mxGeometry>
        </mxCell>
        <mxCell id="PgR12nupK2RqGDpM8uWI-21" value="" style="endArrow=classic;html=1;" edge="1" parent="1" source="PgR12nupK2RqGDpM8uWI-6" target="PgR12nupK2RqGDpM8uWI-12">
          <mxGeometry width="50" height="50" relative="1" as="geometry">
            <mxPoint x="120" y="520" as="sourcePoint" />
            <mxPoint x="370" y="530" as="targetPoint" />
          </mxGeometry>
        </mxCell>
        <mxCell id="PgR12nupK2RqGDpM8uWI-22" value="" style="endArrow=classic;html=1;" edge="1" parent="1" source="PgR12nupK2RqGDpM8uWI-6" target="PgR12nupK2RqGDpM8uWI-11">
          <mxGeometry width="50" height="50" relative="1" as="geometry">
            <mxPoint x="120" y="520" as="sourcePoint" />
            <mxPoint x="380" y="540" as="targetPoint" />
          </mxGeometry>
        </mxCell>
        <mxCell id="PgR12nupK2RqGDpM8uWI-23" value="" style="endArrow=classic;html=1;" edge="1" parent="1" source="PgR12nupK2RqGDpM8uWI-3" target="PgR12nupK2RqGDpM8uWI-5">
          <mxGeometry width="50" height="50" relative="1" as="geometry">
            <mxPoint x="70" y="620" as="sourcePoint" />
            <mxPoint x="170" y="440" as="targetPoint" />
          </mxGeometry>
        </mxCell>
        <mxCell id="PgR12nupK2RqGDpM8uWI-34" style="edgeStyle=none;rounded=0;orthogonalLoop=1;jettySize=auto;html=1;" edge="1" parent="1" source="PgR12nupK2RqGDpM8uWI-31" target="PgR12nupK2RqGDpM8uWI-33">
          <mxGeometry relative="1" as="geometry" />
        </mxCell>
        <mxCell id="PgR12nupK2RqGDpM8uWI-36" style="edgeStyle=none;rounded=0;orthogonalLoop=1;jettySize=auto;html=1;" edge="1" parent="1" source="PgR12nupK2RqGDpM8uWI-31" target="PgR12nupK2RqGDpM8uWI-35">
          <mxGeometry relative="1" as="geometry" />
        </mxCell>
        <mxCell id="PgR12nupK2RqGDpM8uWI-31" value="chunkBuffer" style="rounded=0;whiteSpace=wrap;html=1;" vertex="1" parent="1">
          <mxGeometry x="-140" y="260" width="120" height="40" as="geometry" />
        </mxCell>
        <mxCell id="PgR12nupK2RqGDpM8uWI-33" value="buffer" style="rounded=0;whiteSpace=wrap;html=1;" vertex="1" parent="1">
          <mxGeometry x="-130" y="10" width="120" height="40" as="geometry" />
        </mxCell>
        <mxCell id="PgR12nupK2RqGDpM8uWI-35" value="compression" style="rounded=0;whiteSpace=wrap;html=1;" vertex="1" parent="1">
          <mxGeometry x="-380" y="210" width="120" height="40" as="geometry" />
        </mxCell>
        <mxCell id="PgR12nupK2RqGDpM8uWI-38" value="dimensionDesc" style="rounded=0;whiteSpace=wrap;html=1;" vertex="1" parent="1">
          <mxGeometry x="290" y="110" width="120" height="40" as="geometry" />
        </mxCell>
        <mxCell id="PgR12nupK2RqGDpM8uWI-47" style="edgeStyle=none;rounded=0;orthogonalLoop=1;jettySize=auto;html=1;" edge="1" parent="1" source="PgR12nupK2RqGDpM8uWI-45" target="PgR12nupK2RqGDpM8uWI-12">
          <mxGeometry relative="1" as="geometry">
            <mxPoint x="-180" y="850" as="targetPoint" />
          </mxGeometry>
        </mxCell>
        <mxCell id="PgR12nupK2RqGDpM8uWI-48" style="edgeStyle=none;rounded=0;orthogonalLoop=1;jettySize=auto;html=1;exitX=0.75;exitY=0;exitDx=0;exitDy=0;" edge="1" parent="1" source="PgR12nupK2RqGDpM8uWI-45" target="PgR12nupK2RqGDpM8uWI-5">
          <mxGeometry relative="1" as="geometry" />
        </mxCell>
        <mxCell id="PgR12nupK2RqGDpM8uWI-45" value="blockIterator" style="rounded=0;whiteSpace=wrap;html=1;" vertex="1" parent="1">
          <mxGeometry x="-230" y="665" width="120" height="40" as="geometry" />
        </mxCell>
        <mxCell id="PgR12nupK2RqGDpM8uWI-3" value="blockBuffer" style="rounded=0;whiteSpace=wrap;html=1;" vertex="1" parent="1">
          <mxGeometry x="-20" y="370" width="120" height="40" as="geometry" />
        </mxCell>
        <mxCell id="PgR12nupK2RqGDpM8uWI-51" value="" style="endArrow=classic;html=1;" edge="1" parent="1" source="PgR12nupK2RqGDpM8uWI-6" target="PgR12nupK2RqGDpM8uWI-3">
          <mxGeometry width="50" height="50" relative="1" as="geometry">
            <mxPoint x="60" y="662.5" as="sourcePoint" />
            <mxPoint x="60" y="179.99999999999977" as="targetPoint" />
          </mxGeometry>
        </mxCell>
      </root>
    </mxGraphModel>
  </diagram>
</mxfile>
